<?xml version="1.0" encoding="utf-8"?>
<!-- Uploaded to: SVG Repo, www.svgrepo.com, Generator: SVG Repo Mixer Tools -->
<svg width="800px" height="800px" viewBox="0 -199.5 1423 1423" class="icon"  version="1.1" xmlns="http://www.w3.org/2000/svg"><path d="M105.124 107.703h1142.109v796.875h-1142.109v-796.875z" fill="#C0D36F" /><path d="M1069.108 336.219h157.266v353.672h-157.266zM128.562 336.219h157.266v353.672h-157.266z" fill="#FFFFFF" /><path d="M1120.438 90.125h-887.813c-78.646 0.133-142.367 63.853-142.5 142.488v558.528c0.133 78.647 63.853 142.367 142.488 142.5h887.826c78.646-0.133 142.367-63.853 142.5-142.488v-558.293c0 0 0 0 0 0 0-78.747-63.771-142.601-142.488-142.733zM651.688 626.844c-53.93-11.239-93.867-58.377-93.867-114.844s39.938-103.605 93.106-114.711l0.761 229.554zM698.563 397.156c53.93 11.239 93.867 58.377 93.867 114.844s-39.938 103.605-93.106 114.711l-0.761-229.554zM136.062 347.937h101.25c0 0 0 0 0 0 23.429 0 42.421 18.992 42.421 42.421v243.516c0 0 0 0 0 0 0 23.429-18.992 42.421-42.421 42.421 0 0 0 0 0 0h-101.25v-328.125zM136.062 791.375v-68.438h101.25c49.317 0 89.297-39.98 89.297-89.297v-242.578c0-49.317-39.98-89.297-89.297-89.297 0 0 0 0 0 0h-101.25v-68.438c0.133-52.759 42.867-95.492 95.613-95.625h420.011v212.813c-79.347 12.438-139.329 80.308-139.329 162.188 0 81.879 59.982 149.75 138.403 162.068l0.927 212.932h-419.063c-0.209 0.002-0.457 0.003-0.705 0.003-52.942 0-95.859-42.918-95.859-95.859 0-0.165 0.001-0.331 0.002-0.497zM1120.438 887h-421.875v-212.813c79.347-12.438 139.329-80.308 139.329-162.188 0-81.879-59.982-149.75-138.403-162.068l-0.927-212.932h421.875c52.759 0.133 95.492 42.866 95.625 95.613v68.45h-95.625c0 0 0 0 0 0-49.317 0-89.297 39.98-89.297 89.297v243.516c0 49.317 39.979 89.297 89.297 89.297 0 0 0 0 0 0h93.75v68.438c-0.249 52.012-41.883 94.217-93.648 95.39zM1216.063 347.937v328.125h-95.625c0 0 0 0 0 0-23.429 0-42.421-18.992-42.421-42.421 0 0 0 0 0 0v-242.578c0 0 0 0 0 0 0-23.429 18.992-42.421 42.421-42.421 0 0 0 0 0 0h93.75z" fill="#25274B" /></svg>