<?xml version="1.0" encoding="iso-8859-1"?>
<!-- Uploaded to: SVG Repo, www.svgrepo.com, Generator: SVG Repo Mixer Tools -->
<svg fill="#000000" height="800px" width="800px" version="1.1" id="Capa_1" xmlns="http://www.w3.org/2000/svg" xmlns:xlink="http://www.w3.org/1999/xlink" 
	 viewBox="0 0 495.911 495.911" xml:space="preserve">
<g>
	<g id="Layer_1_80_">
		<path d="M444.679,320.672c60.387-17.744,65.879-54.018,24.439-73.301c-6.653-3.096-54.633-25.674-61.21-27.957l-1.89-0.656
			c-4.9-1.703-9.97-1.791-14.631-0.547c-2.886-3.867-6.919-6.939-11.819-8.641l-1.889-0.658c-4.9-1.701-9.97-1.789-14.631-0.545
			c-2.886-3.865-6.919-6.939-11.819-8.643l-1.889-0.656c-4.9-1.701-9.97-1.791-14.631-0.545c-2.886-3.867-6.919-6.939-11.819-8.643
			l-1.889-0.656c-4.9-1.701-9.971-1.791-14.631-0.547c-2.886-3.865-6.919-6.939-11.819-8.643l-1.889-0.654
			c-5.659-1.967-11.544-1.777-16.765,0.129c-0.182-0.115-0.379-0.234-0.544-0.346c-14.824-9.994-35.158-26.152-48.939-37.283
			c-43.333-35-57.647,1.104-73.656,18.482c-3.361,3.65-3.494,7.916-0.884,12.047c1.987,3.145,4.342,6.057,7.75,10.746
			c-12.025,1.246-22.703,2.32-33.373,3.469c-12.947,1.391-23.867-2.697-32.767-12.127c-4.546-4.814-8.502-10.287-13.512-14.535
			c-4.026-3.412-21.258-10.304-42.02-2.697C0.284,171.067-2.867,278.825,1.514,304.117c2.834,16.355,7.782,22.074,16.04,24.691
			l2.909,5.313l-1.239,12.289c-0.636,6.297,2.879,11.637,8.001,12.154c5.123,0.516,9.636-4.014,10.27-10.311l1.24-12.285
			l2.816-3.328c13.27,1.924,26.573,3.512,39.92,4.621l3.438,5.35l-0.378,12.346c-0.193,6.326,3.686,11.408,8.831,11.564
			c5.146,0.158,9.332-4.674,9.523-11l0.38-12.344l3.244-4.428c6.442,0.219,38.847-15.259,105.731-2.598
			c13.168,2.493,26.641,4.123,39.975,4.148c2.721,0.004,5.442-0.004,8.164-0.014l3.393,4.887l0.066,12.35
			c0.033,6.328,4.093,11.268,9.24,11.24c5.149-0.027,9.158-5.008,9.123-11.338l-0.064-12.348l3.472-5.113
			c15.932-0.344,31.859-0.949,47.763-1.82c2.788-0.154,5.576-0.318,8.363-0.492c0.09,0.125,0.179,0.248,0.282,0.365l4.744,5.314
			l1.565,12.25c0.803,6.279,5.432,10.688,10.538,10.035c5.107-0.654,8.481-6.082,7.679-12.361l-1.565-12.25l2.765-5.379
			c17.226-1.678,34.345-4.156,51.202-8.143c0.065,0.063,0.125,0.131,0.194,0.189l5.427,4.617l3.225,11.92
			c1.654,6.111,6.843,9.846,11.813,8.5s7.569-7.186,5.915-13.295l-3.226-11.922l2.359-6.721
			C444.664,320.74,444.668,320.705,444.679,320.672z M196.221,289.083c-0.86,0.991-2.104,1.55-3.397,1.55
			c-0.186,0-0.372-0.012-0.558-0.035c-10.714-1.338-21.671-2.848-32.567-4.488c-1.62-0.244-2.979-1.35-3.549-2.886
			s-0.259-3.26,0.81-4.501l60.565-70.313c1.315-1.527,3.486-1.992,5.31-1.143c8.674,4.042,17.499,7.93,26.228,11.557
			c1.332,0.553,2.318,1.712,2.651,3.115s-0.026,2.882-0.967,3.975C230.587,249.343,213.771,268.871,196.221,289.083z
			 M258.152,294.775c-0.858,0.986-2.099,1.547-3.395,1.547c-0.116,0-0.232-0.005-0.349-0.014c-11.088-0.86-22.436-1.908-33.73-3.113
			c-1.663-0.178-3.089-1.262-3.706-2.816c-0.616-1.554-0.32-3.322,0.77-4.59c15.535-18.087,33.142-38.587,50.54-58.494
			c1.236-1.416,3.22-1.912,4.978-1.249c9.632,3.638,18.956,6.847,27.71,9.54c1.452,0.446,2.581,1.596,3.001,3.055
			c0.42,1.46,0.076,3.034-0.916,4.185l-3.487,4.045C285.337,263.379,271.895,278.972,258.152,294.775z M358.514,253.671
			l-39.318,43.98c-0.855,0.956-2.076,1.501-3.355,1.501c-0.031,0-0.062,0-0.093-0.001c-7.992-0.165-20.372-0.521-33.968-1.279
			c-1.71-0.096-3.219-1.154-3.89-2.73c-0.671-1.577-0.389-3.397,0.729-4.696l26.567-30.895c4.845-5.64,9.854-11.472,14.837-17.172
			c1.103-1.263,2.816-1.807,4.446-1.412c11.415,2.762,21.855,4.518,31.033,5.218c1.708,0.131,3.193,1.219,3.833,2.808
			S359.655,252.395,358.514,253.671z"/>
	</g>
</g>
</svg>